<svg width="429" height="22" viewBox="0 0 429 22" fill="none" xmlns="http://www.w3.org/2000/svg">
<line x1="0.262573" y1="11.3035" x2="184.538" y2="11.3035" stroke="#C2C2C2" stroke-width="1.00973"/>
<line x1="244.616" y1="11.3035" x2="428.891" y2="11.3035" stroke="#C2C2C2" stroke-width="1.00973"/>
<path d="M209.783 15.8004C208.869 15.8004 208.035 15.5883 207.281 15.1642C206.527 14.7307 205.928 14.1323 205.485 13.3689C205.052 12.5962 204.835 11.7291 204.835 10.7679C204.835 9.80662 205.052 8.94431 205.485 8.18096C205.928 7.40818 206.527 6.80975 207.281 6.38566C208.035 5.95216 208.869 5.7354 209.783 5.7354C210.706 5.7354 211.545 5.95216 212.299 6.38566C213.053 6.80975 213.647 7.40347 214.08 8.16682C214.514 8.93018 214.731 9.79719 214.731 10.7679C214.731 11.7386 214.514 12.6056 214.08 13.3689C213.647 14.1323 213.053 14.7307 212.299 15.1642C211.545 15.5883 210.706 15.8004 209.783 15.8004ZM209.783 14.6836C210.471 14.6836 211.088 14.5234 211.635 14.203C212.191 13.8825 212.624 13.4255 212.935 12.8318C213.256 12.238 213.416 11.5501 213.416 10.7679C213.416 9.97625 213.256 9.28829 212.935 8.704C212.624 8.11028 212.195 7.65321 211.649 7.33279C211.102 7.01237 210.48 6.85216 209.783 6.85216C209.085 6.85216 208.463 7.01237 207.917 7.33279C207.37 7.65321 206.937 8.11028 206.616 8.704C206.305 9.28829 206.15 9.97625 206.15 10.7679C206.15 11.5501 206.305 12.238 206.616 12.8318C206.937 13.4255 207.37 13.8825 207.917 14.203C208.473 14.5234 209.095 14.6836 209.783 14.6836ZM221.617 15.7014L219.27 11.6726H217.715V15.7014H216.429V5.84849H219.609C220.354 5.84849 220.981 5.97572 221.489 6.23017C222.008 6.48462 222.394 6.8286 222.649 7.26211C222.903 7.69562 223.03 8.19038 223.03 8.74641C223.03 9.42494 222.832 10.0234 222.437 10.5417C222.05 11.06 221.466 11.404 220.684 11.5736L223.158 15.7014H221.617ZM217.715 10.6407H219.609C220.307 10.6407 220.83 10.471 221.179 10.1317C221.527 9.78306 221.702 9.32128 221.702 8.74641C221.702 8.16211 221.527 7.70975 221.179 7.38933C220.839 7.06891 220.316 6.9087 219.609 6.9087H217.715V10.6407Z" fill="#C2C2C2"/>
</svg>
